<svg xmlns="http://www.w3.org/2000/svg" viewBox="0 0 1000 1000"><path d="M25.74 94.91c-14.04 6.16-20.39 27.12-11.93 39.43 2.31 3.65 6.92 8.46 9.81 10.58 5.19 3.85 7.89 4.04 76.94 4.62l71.55.58 68.86 254.09c43.47 160.23 70.4 256.4 72.9 259.67 2.12 3.08 6.54 6.92 9.81 8.85 5.77 3.08 23.47 3.27 274.48 3.27 264.87 0 268.33 0 274.87-3.85 3.65-2.12 8.27-6.16 10.2-8.85 5.77-7.69 107.91-385.28 106.75-394.7-3.27-25.01-36.55-33.66-50.97-13.46-2.31 3.27-22.12 72.9-50.4 177.54-25.57 94.63-47.31 175.42-48.46 179.27l-2.12 7.31H598.94c-131.57 0-239.48-.77-240.05-1.54-.38-.77-31.74-115.22-69.44-254.29-39.05-144.84-69.82-255.06-71.94-257.75-1.92-2.69-6.35-6.73-9.81-9.23l-6.35-4.23h-84.83c-66.93.19-86.17.77-90.78 2.69z"/><path d="M371.58 277.07c-20.77 10.39-20.58 40.59.39 50.59 5.96 2.69 27.51 3.08 226.59 3.08 205.43 0 220.24-.19 226.59-3.46 20.58-10.2 20.58-39.82 0-50.59-6.35-3.46-16.16-3.65-226.01-3.65H379.86l-8.28 4.03zm31.36 115.02c-10.19 6.35-13.27 11.16-13.85 22.89-.96 13.85 3.66 22.12 15.39 27.31 7.69 3.65 14.81 3.85 192.74 3.85 119.64 0 187.16-.77 191.77-1.92 8.66-2.5 18.27-13.08 20-22.12 1.73-9.42-3.65-22.89-11.35-28.28l-6.16-4.42-191.39-.58c-183.69-.38-191.57-.19-197.15 3.27zm29.62 116.18c-17.12 11.35-17.12 35.58 0 46.93l6.54 4.42 161.19-.38 161-.58 5.19-4.81c14.62-13.66 14.23-32.12-.96-45.01l-6.16-5H439.1l-6.54 4.43zm-50.78 231.78c-23.08 8.08-41.16 24.24-51.55 46.16-8.27 17.5-9.62 41.55-3.46 61.55 15.77 52.32 77.9 75.98 125.6 47.9 10.39-5.96 26.74-23.08 31.93-33.28 19.62-38.47 9.04-84.63-24.81-109.64-15.2-11.16-31.35-16.16-51.36-16.16-10.77.2-20.2 1.36-26.35 3.47zm379.31.39c-22.31 7.88-39.63 23.08-49.63 43.28-32.51 65.98 27.89 139.65 99.25 121.18 41.36-10.77 69.63-53.86 62.71-95.79-4.81-28.66-23.27-52.9-49.63-65.4-11.54-5.38-15.39-6.16-32.31-6.54-15.58-.58-21.35.19-30.39 3.27z"/></svg>