<svg xmlns="http://www.w3.org/2000/svg" viewBox="0 0 1000 1000"><path d="M482.18 112c-16.9 2.48-35.15 8.56-49.56 15.99-19.83 10.14-48.89 38.75-58.57 57.22l-6.76 13.07H168.82l-11.71 5.86c-42.35 21.18-42.13 79.98.68 102.95 8.79 4.73 11.49 4.96 109.71 5.63l100.7.68 7.44 13.97c9.24 17.12 32.44 40.55 51.59 51.82 24.11 14.19 41.45 18.47 74.12 18.47 24.78-.23 30.19-.9 44.61-6.08 33.57-12.17 61.05-34.47 77.95-63.3l8.79-15.09h95.07c110.16 0 112.42-.23 129.76-17.8 10.59-10.59 17.8-27.03 17.8-40.78 0-19.82-13.74-41.45-31.99-50.46l-11.72-5.86H633.15l-7.66-14.19c-11.94-21.63-38.3-46.41-61.28-57.45-10.36-4.96-23.88-10.14-29.74-11.49-12.64-2.94-42.38-4.97-52.29-3.16zm44.38 103.4c26.36 18.47 28.61 54.07 4.96 75.02-43.48 38.3-105.21-21.18-68.26-65.78 15.54-18.7 43.93-22.98 63.3-9.24zm-318.1 129.76c-5.41 3.83-32.89 45.06-98.45 148.24C60 572.02 16.97 640.29 14.71 644.79c-9.69 18.25-3.83 72.09 11.94 110.61 19.15 47.09 57.68 88.09 104.09 111.3 44.38 22.3 100.48 27.93 148.69 15.54 86.06-22.3 149.36-94.17 161.08-182.48 1.58-10.81 2.25-26.58 1.8-34.69l-.68-15.09-95.52-150.72c-69.84-110.16-97.55-151.62-102.5-154.77-9.92-6.08-25.69-5.63-35.15.67zm88.53 201.86l69.39 109.71-139 .68c-76.37.22-139.45 0-139.9-.45-1.13-1.13 137.2-219.88 139-219.88.68 0 32.44 49.56 70.51 109.94zM756.8 344.49c-4.96 2.93-32.44 44.61-100.93 152.29-51.82 81.55-95.29 151.17-96.42 155-1.58 4.05-1.8 15.99-1.13 30.64 5.63 97.77 68.94 175.27 163.78 200.05 30.64 8.11 72.99 8.11 103.63 0 93.72-24.56 157.47-101.6 163.78-197.8.67-11.94.67-25.01-.23-29.29-2.25-11.71-187.89-303.68-197.35-310.22-9.45-6.3-25.22-6.75-35.13-.67zm86.96 200.95c37.85 59.7 69.16 109.26 69.39 110.39.45 1.13-59.92 2.03-139.23 2.03-78.62 0-139.68-.9-139.22-2.03 1.58-4.05 138.1-218.53 139.22-218.75.68 0 31.99 48.89 69.84 108.36z"/></svg>