<svg xmlns="http://www.w3.org/2000/svg" viewBox="0 0 1000 1000"><path d="M489.76 12.98c-2.32 1.74-8.12 8.12-13.14 14.11-18.36 22.61-30.73 25.13-57.4 11.02-9.08-4.83-18.94-8.7-21.65-8.7-8.7 0-17.2 10.44-21.07 26.09-4.25 17.39-9.28 25.32-19.13 30.15-7.15 3.67-9.86 4.06-29.77 2.71l-21.84-1.35-5.99 5.99-5.99 5.99 1.35 21.84c1.35 19.91.97 22.61-2.71 29.77-4.83 9.66-12.18 14.3-30.92 19.91-16.24 4.83-25.32 11.98-25.32 20.29 0 4.83 1.35 8.12 12.37 28.8 5.8 11.21 6.57 23.39 1.74 33.44-1.74 3.67-9.08 11.4-16.24 17.2-14.5 11.6-17.2 15.27-17.2 23.39.19 8.12 3.67 12.95 16.43 23.39 23.58 18.94 25.71 29.77 11.6 57.6-9.47 18.55-10.05 21.45-5.99 29.57 3.09 5.6 11.02 9.66 28.61 14.69 13.14 3.48 23.58 11.98 26.67 21.45 1.55 4.64 1.93 13.14.97 25.71-1.16 15.46-.77 20.1 1.74 24.93 4.45 8.5 14.11 10.82 32.08 7.92 28.22-4.64 40.2 4.45 49.29 37.69 1.74 6.18 5.22 13.34 7.92 16.04 6.96 6.96 19.13 5.41 34.6-3.87 14.11-8.7 24.55-10.63 34.79-6.19 9.47 3.87 12.95 6.96 22.61 19.91 4.25 5.61 10.44 11.6 14.11 13.34 11.21 5.41 17.98 1.54 35.56-20.68 8.5-10.63 20.87-16.23 31.89-14.69 4.44.77 13.33 4.45 19.52 8.31 15.46 9.28 27.64 10.82 34.6 3.87 2.71-2.71 6.18-9.86 7.92-16.04 9.08-33.24 21.07-42.33 49.29-37.69 17.98 2.9 27.64.58 32.08-7.92 2.51-4.83 2.9-9.47 1.74-24.93-.97-12.56-.58-21.07.97-25.71 3.09-9.47 13.53-17.98 26.67-21.45 17.59-5.03 25.51-9.08 28.6-14.69 4.06-8.12 3.48-11.6-5.99-29.38-14.3-27.25-12.18-38.85 11.6-57.79 12.75-10.44 16.24-15.27 16.43-23.39 0-8.12-2.71-11.79-17.2-23.39-14.69-11.79-19.52-19.91-19.52-32.47 0-8.12 1.35-11.4 12.95-32.86 1.55-2.9 3.29-8.31 3.87-11.98 1.54-9.86-6.19-17.01-24.74-22.42-17.98-5.22-27.25-11.21-31.7-20.29-2.9-6.19-3.09-10.44-1.93-29.19L706.24 99l-5.99-5.99-5.99-5.99-21.84 1.35c-19.91 1.35-22.61.97-29.77-2.71-9.86-5.03-14.69-12.56-19.71-31.12-4.25-16.04-11.79-25.13-20.68-25.13-4.64 0-7.93 1.35-28.61 12.37-17.97 9.47-36.72 4.83-48.51-12.37-12.38-17.78-24.95-23.58-35.38-16.43zm57.59 89.69c19.71 5.03 48.13 18.17 64.94 30.15 37.3 26.67 65.33 68.04 77.31 114.04 4.45 16.62 5.03 23.39 5.22 48.32 0 24.93-.77 31.5-5.02 47.55-13.53 51.03-42.13 92-83.5 118.87-32.67 21.26-67.65 31.7-106.3 31.7-92.39 0-170.67-64.17-191.73-156.94-4.83-21.45-4.25-63.4.97-85.24 14.3-58.56 50.64-105.92 100.89-131.62 21.26-10.82 29.96-13.92 51.22-18.55 22.99-5.05 61.84-4.28 86 1.72z"/><path d="M472.75 136.49c-18.17 3.48-25.9 6.19-42.33 14.11-41.75 20.68-71.71 57.6-84.27 103.99-5.99 21.84-5.99 59.34 0 81.18 22.23 82.33 101.28 133.55 182.26 118.09 61.08-11.79 109.4-57.21 125.44-118.1 4.83-18.55 5.8-55.47 1.93-73.45-10.82-49.29-42.13-89.68-86.98-112.1-27.63-13.72-66.67-19.33-96.05-13.72zm-149.41 399.7c-10.24 32.86-110.36 382.7-110.36 385.98 0 5.99 5.41 14.88 11.02 17.78 5.02 2.71-.19 4.06 62.82-16.43l43.87-14.3 37.11 40.39c40.01 43.68 40.78 44.26 53.15 36.72 3.29-1.93 6.96-6.18 8.12-9.08 1.16-3.09 17.01-57.79 35.18-121.57 18.17-63.78 33.63-117.71 34.6-119.83l1.55-3.87 1.16 3.87c.58 2.13 16.04 56.05 34.21 119.83s34.02 118.48 35.18 121.57c1.16 2.9 4.83 7.15 8.12 9.08 12.37 7.54 13.14 6.96 53.15-36.72l36.92-40.39 49.87 16.23c27.25 8.89 51.03 16.24 52.77 16.24 5.03 0 15.27-12.76 15.27-18.94 0-5.03-110.94-390.23-112.88-392.17-1.93-1.93-10.63 1.35-16.62 6.38-7.34 6.38-12.95 16.82-15.65 30.15-4.64 21.84-14.5 32.08-28.41 29.76-3.67-.58-12.56-4.64-19.91-8.89-7.35-4.44-18.17-8.89-23.78-10.05-9.66-2.13-11.02-1.93-21.26 3.09-8.31 4.06-13.14 8.31-20.49 17.98-21.65 28.6-34.4 28.99-54.51 1.93-20.1-26.87-37.88-30.35-67.45-12.76-7.15 4.25-15.85 8.12-19.52 8.7-13.92 2.32-23.39-7.54-28.61-30.15-4.06-17.78-10.82-28.41-21.65-34.02-7.94-4.04-10.65-3.27-12.97 3.49z"/></svg>